# xmcd
#
# Track frame offsets:
#	150
#	25680
#	51370
#	85457
#
# Disc length: 1392 seconds
#
# Revision: 0
# Processed by: cddbd v1.5.2PL0 Copyright (c) Steve Scherf et al.
# Submitted via: dBpowerAMP V4.0
#
DISCID=2b056e04
DTITLE=Jeanette "Lady" Day - Come Let Me Love You - Sexy Sexy Sexy
DYEAR=1982
DGENRE=Funk
TTITLE0=Come Let Me Love You
TTITLE1=Come Let Me Love You (Instrumental)
TTITLE2=Sexy Sexy Sexy (Slow Version)
TTITLE3=Sexy Sexy Sexy (Fast Version)
EXTD=Sean P.
EXTT0=
EXTT1=
EXTT2=
EXTT3=
PLAYORDER=
